<svg width="500" height="500" viewBox="0 0 500 500" fill="none" xmlns="http://www.w3.org/2000/svg">
<g clip-path="url(#clip0_2_86)">
<path d="M134.25 206.641L161.833 274.953H145.104L140.041 261.286H114.041L109 274.953H92.2705L119.833 206.641H134.25ZM134.75 247.62L127.125 227.745H126.958L119.354 247.62H134.75Z" fill="#4C1D95"/>
<path d="M177.223 274.953V232.474H191.869V238.599H192.036C192.145 238.38 192.328 238.099 192.578 237.766C192.828 237.432 193.359 236.859 194.182 236.036C195.015 235.203 195.895 234.463 196.828 233.807C197.77 233.141 198.984 232.547 200.473 232.016C201.973 231.489 203.494 231.224 205.036 231.224C206.63 231.224 208.203 231.448 209.744 231.891C211.296 232.338 212.437 232.781 213.161 233.224L214.307 233.87L208.182 246.307C206.359 244.755 203.817 243.974 200.557 243.974C198.791 243.974 197.27 244.364 195.994 245.141C194.729 245.922 193.833 246.864 193.307 247.974C192.791 249.073 192.421 250.01 192.203 250.786C191.979 251.552 191.869 252.156 191.869 252.599V274.953H177.223Z" fill="#4C1D95"/>
<path d="M215.203 269.703C211.229 265.37 209.245 260.057 209.245 253.766C209.245 247.463 211.229 242.13 215.203 237.766C219.188 233.406 224.245 231.224 230.37 231.224C236.005 231.224 240.646 232.995 244.287 236.536V232.474H258.932V274.953H244.453V270.141H244.287C240.646 274.182 236.005 276.203 230.37 276.203C224.245 276.203 219.188 274.036 215.203 269.703ZM227.682 246.557C225.776 248.432 224.828 250.838 224.828 253.766C224.828 256.682 225.735 259.068 227.557 260.911C229.375 262.76 231.776 263.682 234.766 263.682C237.625 263.682 239.979 262.745 241.828 260.87C243.688 258.995 244.62 256.62 244.62 253.745C244.62 250.828 243.662 248.432 241.745 246.557C239.839 244.672 237.516 243.724 234.766 243.724C231.943 243.724 229.583 244.672 227.682 246.557Z" fill="#4C1D95"/>
<path d="M273.5 232.474L283.855 255.578L294.209 232.474H311.605L288.834 274.953H278.896L256.105 232.474H273.5Z" fill="#4C1D95"/>
<path d="M311.659 269.703C307.685 265.37 305.701 260.057 305.701 253.766C305.701 247.463 307.685 242.13 311.659 237.766C315.644 233.406 320.701 231.224 326.826 231.224C332.462 231.224 337.102 232.995 340.743 236.536V232.474H355.389V274.953H340.909V270.141H340.743C337.102 274.182 332.462 276.203 326.826 276.203C320.701 276.203 315.644 274.036 311.659 269.703ZM324.139 246.557C322.232 248.432 321.284 250.838 321.284 253.766C321.284 256.682 322.191 259.068 324.014 260.911C325.831 262.76 328.232 263.682 331.222 263.682C334.081 263.682 336.435 262.745 338.284 260.87C340.144 258.995 341.076 256.62 341.076 253.745C341.076 250.828 340.118 248.432 338.201 246.557C336.295 244.672 333.972 243.724 331.222 243.724C328.399 243.724 326.04 244.672 324.139 246.557Z" fill="#4C1D95"/>
<path d="M361.686 232.474V216.661H376.332V232.474H385.29V243.641H376.332V257.141C376.332 261.073 377.436 263.036 379.644 263.036C380.196 263.036 380.78 262.927 381.394 262.703C382.004 262.484 382.467 262.26 382.79 262.036L383.29 261.703L386.936 273.536C383.795 275.312 380.207 276.203 376.165 276.203C373.415 276.203 371.04 275.713 369.04 274.745C367.05 273.776 365.545 272.474 364.519 270.849C363.504 269.224 362.774 267.516 362.332 265.724C361.899 263.932 361.686 262.016 361.686 259.974V243.641H355.561V232.474H361.686Z" fill="#4C1D95"/>
<path d="M385.783 274.953V203.724H400.429V274.953H385.783Z" fill="#4C1D95"/>
<mask id="mask0_2_86" style="mask-type:luminance" maskUnits="userSpaceOnUse" x="157" y="203" width="18" height="25">
<path d="M157.141 203.078H174.141V227.078H157.141V203.078Z" fill="white"/>
</mask>
<g mask="url(#mask0_2_86)">
<path d="M165.484 207.146C163.276 207.146 161.474 208.943 161.474 211.156C161.474 213.365 163.276 215.161 165.484 215.161C167.693 215.161 169.495 213.365 169.495 211.156C169.495 208.943 167.693 207.146 165.484 207.146Z" fill="#4C1D95"/>
<path d="M165.484 203.109C160.885 203.109 157.141 206.849 157.141 211.453C157.141 214.698 163.068 222.948 165.042 226.505C165.13 226.667 165.302 226.766 165.484 226.766C165.667 226.766 165.839 226.667 165.927 226.505C168.026 222.724 173.828 214.917 173.828 211.453C173.828 206.849 170.083 203.109 165.484 203.109ZM165.484 225.245C163.328 221.604 158.156 214.115 158.156 211.453C158.156 207.411 161.443 204.12 165.484 204.12C169.526 204.12 172.813 207.411 172.813 211.453C172.813 214.286 167.677 221.557 165.484 225.245Z" fill="#4C1D95"/>
</g>
<mask id="mask1_2_86" style="mask-type:luminance" maskUnits="userSpaceOnUse" x="404" y="265" width="8" height="10">
<path d="M404.255 265.099H412V274.099H404.255V265.099Z" fill="white"/>
</mask>
<g mask="url(#mask1_2_86)">
<path d="M406.958 274.208V266.646H404.255V265.104H411.49V266.646H408.792V274.208H406.958Z" fill="#4C1D95"/>
</g>
<mask id="mask2_2_86" style="mask-type:luminance" maskUnits="userSpaceOnUse" x="412" y="265" width="10" height="10">
<path d="M412 265.099H421.255V274.099H412V265.099Z" fill="white"/>
</mask>
<g mask="url(#mask2_2_86)">
<path d="M412.651 274.208V265.104H415.401L417.052 271.313L418.687 265.104H421.443V274.208H419.734V267.042L417.927 274.208H416.156L414.359 267.042V274.208H412.651Z" fill="#4C1D95"/>
</g>
<path d="M158 275V232H173V275H158Z" fill="#4C1D95"/>
</g>
<defs>
<clipPath id="clip0_2_86">
<rect width="500" height="500" fill="white"/>
</clipPath>
</defs>
</svg>
